PathFileType  4	(X/Y/Z) C:\Users\antoi\Documents\MyRepositories\mobilecap\ResultsAnalysis
DataRate	CameraRate	NumFrames	NumMarkers	Units	OrigDataRate	OrigDataStartFrame	OrigNumFrames
100.0	100.0	6	51	mm	100.0	85	135
Frame#	Time	r_knee			r_shank_antsup			r_ankle			r_calc			r_5meta			r_toe			L_knee			L_shank_antsup			L_ankle			L_calc			L_5meta			L_toe			r_sh2			r_sh3			r_sh4			L_sh2			L_sh3			r_thigh1			r_thigh2			r_thigh3			r_thigh4			r_thigh5			L_thigh1			L_thigh2			L_thigh3			L_thigh4			r.ASIS			r.PSIS			L.ASIS			L.PSIS			C7			R_Shoulder			L_Shoulder			R_Sternum			L_Sternum			R_humerus			R_elbow_med			R_elbow_lat			R_forearm			R_wrist_radius			R_wrist_ulna			L_humerus			L_elbow_med			L_elbow_lat			L_forearm			L_wrist_radius			L_wrist_ulna			R_HJC			L_HJC			R_HJC_reg			L_HJC_reg			
		X1	Y1	Z1	X2	Y2	Z2	X3	Y3	Z3	X4	Y4	Z4	X5	Y5	Z5	X6	Y6	Z6	X7	Y7	Z7	X8	Y8	Z8	X9	Y9	Z9	X10	Y10	Z10	X11	Y11	Z11	X12	Y12	Z12	X13	Y13	Z13	X14	Y14	Z14	X15	Y15	Z15	X16	Y16	Z16	X17	Y17	Z17	X18	Y18	Z18	X19	Y19	Z19	X20	Y20	Z20	X21	Y21	Z21	X22	Y22	Z22	X23	Y23	Z23	X24	Y24	Z24	X25	Y25	Z25	X26	Y26	Z26	X27	Y27	Z27	X28	Y28	Z28	X29	Y29	Z29	X30	Y30	Z30	X31	Y31	Z31	X32	Y32	Z32	X33	Y33	Z33	X34	Y34	Z34	X35	Y35	Z35	X36	Y36	Z36	X37	Y37	Z37	X38	Y38	Z38	X39	Y39	Z39	X40	Y40	Z40	X41	Y41	Z41	X42	Y42	Z42	X43	Y43	Z43	X44	Y44	Z44	X45	Y45	Z45	X46	Y46	Z46	X47	Y47	Z47	X48	Y48	Z48	X49	Y49	Z49	X50	Y50	Z50	X51	Y51	Z51	

85	0.84000000	1021.30523	507.68309	-20.69205	1023.93288	428.36893	-37.98325	754.07909	225.31851	-75.97326	689.17930	249.94350	-123.79045	780.75757	110.63835	-40.06789	842.89786	97.74324	-85.86794	917.94998	492.57080	-318.19946	944.43239	394.52450	-318.37714	861.61764	97.11898	-263.85523	798.36302	64.38217	-209.15084	959.17299	41.57896	-314.13097	1008.89988	64.65722	-262.36630	929.74375	359.49391	-26.57248	971.23305	488.30784	-16.95647	883.77644	417.88865	-27.80098	856.06274	411.62637	-316.17996	845.01785	290.03170	-310.58486	975.30840	822.30719	-11.76600	1011.66258	714.36427	-6.56575	958.74973	674.88919	8.49107	866.56151	785.21584	-16.04277	906.52394	674.75648	-19.23552	928.37991	758.05664	-385.63603	948.61525	624.57968	-354.78915	821.72924	746.80764	-344.84613	846.40892	611.53979	-320.30625	969.64798	966.38653	-67.92340	781.92827	1007.29431	-149.25806	976.71404	955.34716	-318.09307	776.03385	1015.20861	-249.77255	776.46964	1411.94007	-225.09922	874.68849	1393.77100	-42.74764	861.70986	1376.90617	-399.97261	915.93064	1393.40153	-200.04048	921.37065	1392.01576	-242.46398	887.11011	1260.29912	22.44000	842.20876	1044.20337	-17.97885	855.53078	1062.70144	51.86728	947.39315	956.58935	73.00081	1010.94405	836.32493	82.37136	982.22092	822.54060	98.43789	886.81190	1259.24410	-456.05923	869.05933	1023.59004	-387.95314	867.66812	1044.92702	-464.17354	933.50344	954.74353	-490.45564	968.65400	801.42854	-518.79306	937.93277	802.22408	-531.89527	890.24162	888.14389	-92.06091	893.53315	886.00236	-298.49899	905.54470	879.90322	-105.01572	895.89630	892.85938	-269.55819	
86	0.85000000	1040.22575	511.69515	-23.01993	1045.97668	432.55052	-40.50526	785.11588	217.10123	-75.92788	718.24458	238.80170	-122.30093	818.59646	104.09154	-41.06941	880.44140	94.67539	-87.85615	920.17159	492.93844	-317.66162	945.87048	394.83584	-317.86516	861.88940	97.41159	-263.57458	798.68150	64.45124	-209.07225	959.19743	41.57927	-314.17957	1008.95178	64.59345	-262.40876	954.97342	359.41576	-28.06564	990.75175	490.04266	-18.98551	906.46812	415.76897	-28.56237	857.59336	412.33854	-315.56057	845.94803	290.83130	-310.11586	988.32517	825.64967	-12.15183	1026.78627	718.44305	-7.52786	974.64178	678.03574	8.17744	880.46244	786.71531	-15.09051	921.83224	677.19417	-18.81550	935.55413	758.02150	-385.32329	953.35267	624.38855	-354.15208	828.75570	748.89269	-344.31425	851.01674	613.32269	-319.43311	980.26187	968.94124	-68.93567	792.22478	1008.81028	-149.19707	986.76502	956.51456	-318.99459	786.12769	1016.12889	-249.67020	787.07457	1413.27511	-226.33029	883.97423	1395.17854	-43.42982	873.04959	1378.92241	-400.54015	926.15152	1394.84172	-200.35691	931.78809	1393.61085	-242.73018	895.45445	1261.40583	21.79451	848.98225	1046.02696	-19.95759	861.73952	1064.13707	50.20372	951.12270	956.23489	72.35377	1011.46017	834.48776	82.67237	982.39645	821.44102	98.70578	900.43060	1262.00481	-456.85123	888.96557	1025.57058	-390.13331	888.18387	1047.20176	-466.43971	958.21506	959.72248	-491.51458	1000.49704	808.25957	-519.84890	969.75211	807.49636	-533.63438	901.28611	890.25699	-92.06826	903.64691	887.07788	-298.50727	916.28268	882.09702	-105.40833	906.29730	894.08278	-269.96237	
87	0.86000000	1058.62265	515.35843	-25.35132	1067.57194	436.54008	-43.07681	816.86013	208.41826	-76.07670	748.18476	226.81524	-121.09784	857.16891	97.54909	-42.11707	918.66376	91.71549	-89.80196	922.37701	493.25430	-317.14259	947.35843	395.13421	-317.33863	862.19242	97.73051	-263.24439	798.95881	64.53340	-209.00828	959.21949	41.58013	-314.21887	1009.00204	64.53095	-262.44629	980.18564	359.00781	-29.66090	1009.78393	491.24129	-20.90075	929.06873	413.05425	-29.32143	859.19917	413.06453	-314.92456	846.93631	291.65707	-309.64335	1001.48794	828.66145	-12.53421	1041.82655	722.10673	-8.53067	990.34192	680.91627	7.96746	894.49406	788.12773	-13.92485	937.08357	679.32657	-18.22394	942.69111	757.92495	-384.96623	958.05451	624.14860	-353.49587	835.76873	750.89958	-343.70410	855.64769	615.04959	-318.46666	990.88789	971.09080	-69.86697	802.55760	1010.10426	-149.03478	996.82224	957.44030	-319.89130	796.23657	1016.87247	-249.46459	797.67796	1414.38696	-227.52163	893.25557	1396.32286	-44.09178	884.30401	1380.74293	-401.09955	936.36003	1396.07678	-200.67896	942.14558	1395.01935	-243.00921	903.70672	1262.26156	21.20471	855.73940	1047.61055	-21.88124	867.86486	1065.35573	48.55821	954.81491	955.76340	71.71293	1011.96874	832.63054	82.90907	982.63885	820.33275	98.89347	913.83191	1264.61417	-457.70529	908.81000	1027.60886	-392.17464	908.44426	1049.54457	-468.57639	982.63348	964.96136	-492.38659	1032.08357	815.68888	-520.57461	1001.33923	813.23324	-535.02411	912.30435	892.03688	-92.07488	913.71684	887.95084	-298.50590	926.98784	883.96204	-105.74966	916.62753	895.05375	-270.35338	
88	0.87000000	1076.49528	518.63189	-27.63583	1088.65248	440.30403	-45.61456	849.25946	199.40165	-76.45786	779.02350	214.08403	-120.31496	896.30542	91.14846	-43.17388	957.46857	88.98015	-91.61019	924.60358	493.48975	-316.65705	948.91652	395.39924	-316.82033	862.49568	98.06648	-262.89822	799.16376	64.64871	-208.94775	959.23775	41.57724	-314.24798	1009.05412	64.46948	-262.47909	1005.33407	358.31860	-31.34702	1028.28967	491.88965	-22.63395	951.55974	409.78410	-30.07322	860.89666	413.79818	-314.26769	847.98711	292.49209	-309.15498	1014.73880	831.34178	-12.94021	1056.69942	725.35357	-9.60701	1005.82790	683.50747	7.81857	908.56172	789.41182	-12.62462	952.29571	681.10769	-17.49862	949.77577	757.75444	-384.56316	962.76269	623.86359	-352.83220	842.76087	752.81258	-343.03255	860.32447	616.70292	-317.41027	1001.54512	972.82357	-70.71751	812.95446	1011.17357	-148.79424	1006.85068	958.05021	-320.76860	806.37408	1017.44830	-249.17574	808.28566	1415.25394	-228.67292	902.55587	1397.16807	-44.72797	895.52182	1382.31100	-401.66115	946.58336	1397.07027	-201.00352	952.48097	1396.19806	-243.29576	911.86719	1262.82892	20.65919	862.47047	1048.91544	-23.72238	873.94768	1066.32225	46.94610	958.49572	955.13453	71.08994	1012.50183	830.70425	83.10310	982.98359	819.16764	99.00946	927.11050	1267.00843	-458.60420	928.53753	1029.64409	-394.09352	928.47806	1051.87890	-470.58552	1006.72911	970.36901	-493.09726	1063.32283	823.62702	-520.97962	1032.64651	819.40403	-536.04826	923.28159	893.48224	-92.06474	923.71604	888.57250	-298.47957	937.66820	885.44865	-106.03679	926.87198	895.74101	-270.71705	
89	0.88000000	1093.80691	521.49341	-29.82722	1109.13449	443.81004	-48.04894	882.24050	190.17960	-77.10037	810.78810	200.74884	-120.06085	935.86686	85.01333	-44.20268	996.76119	86.56472	-93.20014	926.91468	493.63400	-316.20939	950.57504	395.61678	-316.32417	862.77340	98.41247	-262.57132	799.28550	64.80597	-208.87898	959.25285	41.56707	-314.26536	1009.11573	64.41082	-262.50916	1030.35464	357.40918	-33.11021	1046.21533	491.98524	-24.17064	973.90222	406.00015	-30.83791	862.70492	414.53020	-313.59763	849.11189	293.31640	-308.64791	1027.99197	833.69252	-13.41434	1071.30825	728.18840	-10.79100	1021.07729	685.80769	7.70355	922.54280	790.52526	-11.25484	967.44920	682.54299	-16.66240	956.82311	757.50043	-384.10886	967.51679	623.53363	-352.16501	849.72858	754.60231	-342.30951	865.07871	618.26003	-316.27424	1012.25178	974.13712	-71.48967	823.42886	1012.01752	-148.49964	1016.81774	958.28299	-321.60303	816.55543	1017.86444	-248.82410	818.90492	1415.85682	-229.78436	911.89936	1397.68946	-45.33426	906.74523	1383.57968	-402.22834	956.84418	1397.79752	-201.32720	962.83816	1397.11409	-243.58330	919.95441	1263.08097	20.14272	869.16617	1049.90792	-25.46009	880.02885	1067.01043	45.38241	962.18869	954.31599	70.49306	1013.10446	828.67706	83.27076	983.45047	817.90440	99.05919	940.34623	1269.13979	-459.51984	948.10070	1031.61685	-395.90105	948.32898	1054.12867	-472.45792	1030.47653	975.86596	-493.67082	1094.13134	831.98661	-521.07504	1063.62383	825.99309	-536.69012	934.20333	894.59786	-92.02077	933.62333	888.90194	-298.41142	948.32100	886.52135	-106.27525	937.03104	896.12259	-271.04295	
90	0.89000000	1110.48687	523.93186	-31.88537	1128.91688	447.02626	-50.32509	915.72655	180.88030	-78.01898	843.50855	187.00300	-120.41667	975.73648	79.25049	-45.16751	1036.43508	84.54285	-94.50685	929.39225	493.69657	-315.79274	952.37063	395.77928	-315.85449	863.01803	98.76378	-262.28677	799.33894	64.99625	-208.79291	959.26806	41.54811	-314.26893	1009.19600	64.35620	-262.53953	1055.16303	356.34083	-34.91739	1063.49381	491.53230	-25.54885	996.03515	401.74141	-31.66147	864.64597	415.24880	-312.93234	850.33098	294.11211	-308.13204	1041.15265	835.70998	-14.00990	1085.57054	730.61540	-12.10838	1036.07683	687.82935	7.60605	936.32431	791.43354	-9.86466	982.48965	683.66982	-15.73702	963.87313	757.15598	-383.59842	972.35647	623.15293	-351.48934	856.69008	756.22933	-341.54101	869.95241	619.69363	-315.08011	1023.02169	975.03242	-72.18700	833.97986	1012.63548	-148.17371	1026.71389	958.10658	-322.36706	826.79275	1018.12680	-248.42872	829.54267	1416.18203	-230.85627	921.30749	1397.87445	-45.90775	918.00809	1384.51503	-402.79626	967.15828	1398.24462	-201.64658	973.25781	1397.74487	-243.86430	928.00321	1263.00427	19.64105	875.82970	1050.56218	-27.08472	886.14335	1067.40457	43.87785	965.91498	953.28532	69.92687	1013.83691	826.54114	83.41923	984.04301	816.51023	99.04753	953.59715	1270.97124	-460.41972	967.47507	1033.46946	-397.60289	968.03582	1056.22744	-474.18202	1053.85463	981.38837	-494.12451	1124.43911	840.68994	-520.87090	1094.21886	832.98089	-536.94526	945.05925	895.38836	-91.93251	943.43516	888.91756	-298.29142	958.94109	887.16390	-106.47660	947.12171	896.19223	-271.32439	
